<mxfile host="app.diagrams.net" agent="Mozilla/5.0 (Windows NT 10.0; Win64; x64) AppleWebKit/537.36 (KHTML, like Gecko) Chrome/135.0.0.0 Safari/537.36" version="27.0.6">
  <diagram name="Page-1" id="z4XhQ-jAeHE7SyvA5xWt">
    <mxGraphModel dx="898" dy="750" grid="1" gridSize="10" guides="1" tooltips="1" connect="1" arrows="1" fold="1" page="1" pageScale="1" pageWidth="827" pageHeight="1169" math="0" shadow="0">
      <root>
        <mxCell id="0" />
        <mxCell id="1" parent="0" />
        <mxCell id="4zdUnPzI3HsvfFCuKaqa-1" value="" style="rounded=0;whiteSpace=wrap;html=1;" vertex="1" parent="1">
          <mxGeometry x="160" y="80" width="520" height="660" as="geometry" />
        </mxCell>
        <mxCell id="4zdUnPzI3HsvfFCuKaqa-2" value="&lt;b&gt;&lt;font style=&quot;font-size: 14px; color: light-dark(rgb(255, 0, 0), rgb(237, 237, 237));&quot;&gt;Logiciel de gestion de bibliothèque&lt;/font&gt;&lt;/b&gt;" style="text;html=1;align=center;verticalAlign=middle;whiteSpace=wrap;rounded=0;" vertex="1" parent="1">
          <mxGeometry x="170" y="90" width="240" height="30" as="geometry" />
        </mxCell>
        <mxCell id="4zdUnPzI3HsvfFCuKaqa-3" value="Rechercher des livres" style="ellipse;whiteSpace=wrap;html=1;" vertex="1" parent="1">
          <mxGeometry x="250" y="170" width="140" height="70" as="geometry" />
        </mxCell>
        <mxCell id="4zdUnPzI3HsvfFCuKaqa-4" value="Réserver des livres" style="ellipse;whiteSpace=wrap;html=1;" vertex="1" parent="1">
          <mxGeometry x="250" y="260" width="140" height="70" as="geometry" />
        </mxCell>
        <mxCell id="4zdUnPzI3HsvfFCuKaqa-10" style="rounded=0;orthogonalLoop=1;jettySize=auto;html=1;dashed=1;dashPattern=8 8;exitX=0;exitY=0.5;exitDx=0;exitDy=0;" edge="1" parent="1" source="4zdUnPzI3HsvfFCuKaqa-9" target="4zdUnPzI3HsvfFCuKaqa-5">
          <mxGeometry relative="1" as="geometry" />
        </mxCell>
        <mxCell id="4zdUnPzI3HsvfFCuKaqa-11" value="&amp;lt;&amp;lt;excludes&amp;gt;&amp;gt;" style="edgeLabel;html=1;align=center;verticalAlign=middle;resizable=0;points=[];" vertex="1" connectable="0" parent="4zdUnPzI3HsvfFCuKaqa-10">
          <mxGeometry x="0.0429" y="-1" relative="1" as="geometry">
            <mxPoint as="offset" />
          </mxGeometry>
        </mxCell>
        <mxCell id="4zdUnPzI3HsvfFCuKaqa-5" value="Emprunter des livres" style="ellipse;whiteSpace=wrap;html=1;" vertex="1" parent="1">
          <mxGeometry x="250" y="350" width="140" height="70" as="geometry" />
        </mxCell>
        <mxCell id="4zdUnPzI3HsvfFCuKaqa-6" value="Retourner des livres" style="ellipse;whiteSpace=wrap;html=1;" vertex="1" parent="1">
          <mxGeometry x="250" y="440" width="140" height="70" as="geometry" />
        </mxCell>
        <mxCell id="4zdUnPzI3HsvfFCuKaqa-7" value="Ajouter un livre" style="ellipse;whiteSpace=wrap;html=1;" vertex="1" parent="1">
          <mxGeometry x="250" y="530" width="140" height="70" as="geometry" />
        </mxCell>
        <mxCell id="4zdUnPzI3HsvfFCuKaqa-8" value="Gérer les comptes des membres" style="ellipse;whiteSpace=wrap;html=1;" vertex="1" parent="1">
          <mxGeometry x="250" y="630" width="140" height="70" as="geometry" />
        </mxCell>
        <mxCell id="4zdUnPzI3HsvfFCuKaqa-9" value="Envoyer un mail" style="ellipse;whiteSpace=wrap;html=1;" vertex="1" parent="1">
          <mxGeometry x="530" y="350" width="140" height="70" as="geometry" />
        </mxCell>
        <mxCell id="4zdUnPzI3HsvfFCuKaqa-12" value="Employé" style="shape=umlActor;verticalLabelPosition=bottom;verticalAlign=top;html=1;" vertex="1" parent="1">
          <mxGeometry x="60" y="560" width="30" height="60" as="geometry" />
        </mxCell>
      </root>
    </mxGraphModel>
  </diagram>
</mxfile>
